/* XPM */
static char *out[] = {
/* columns rows colors chars-per-pixel */
"50 50 100 2 ",
"   c None",
".  c black",
"X  c #160E0D",
"o  c #19110F",
"O  c #111111",
"+  c #1B1312",
"@  c #1D1B1B",
"#  c #221514",
"$  c #221D1C",
"%  c #2D1D1C",
"&  c #32211F",
"*  c #1F1F21",
"=  c #242323",
"-  c #2A2A2A",
";  c #362523",
":  c #3C2624",
">  c #3E2C29",
",  c #323232",
"<  c #3B3B3C",
"1  c #422A27",
"2  c #462B29",
"3  c #482F2D",
"4  c #4D3331",
"5  c #443837",
"6  c #413838",
"7  c #533533",
"8  c #583734",
"9  c #573835",
"0  c #5A3936",
"q  c #543D3C",
"w  c #5E3C39",
"e  c #633F3A",
"r  c #4B403E",
"t  c #5E423E",
"y  c #66403B",
"u  c #6A423E",
"i  c #464545",
"p  c #4B4646",
"a  c #4C4B4A",
"s  c #5A4645",
"d  c #565656",
"f  c #5B5B5B",
"g  c #644441",
"h  c #6E4541",
"j  c #694A46",
"k  c #6C4D49",
"l  c #714642",
"z  c #734945",
"x  c #754D49",
"c  c #76514D",
"v  c #78524F",
"b  c #655756",
"n  c #6F5652",
"m  c #695956",
"M  c #695C5A",
"N  c #705653",
"B  c #7A5754",
"V  c #725956",
"C  c #7B5855",
"Z  c #735C5A",
"A  c #7A5C59",
"S  c #75625F",
"D  c #7A625F",
"F  c #656465",
"G  c #6D6767",
"H  c #6E6E6E",
"J  c #766361",
"K  c #7A6563",
"L  c #7D6967",
"P  c #766C6B",
"I  c #7C6E6C",
"U  c #75706F",
"Y  c #717171",
"T  c #7C7675",
"R  c #7C7B7B",
"E  c #836664",
"W  c #806967",
"Q  c #816E6C",
"!  c #86706F",
"~  c #827675",
"^  c #8A7473",
"/  c #887977",
"(  c #837C7B",
")  c #8D7D7C",
"_  c #8D817F",
"`  c #828282",
"'  c #898585",
"]  c #8F8887",
"[  c #878788",
"{  c #8A8A8A",
"}  c #928584",
"|  c #968E8D",
" . c #988E8E",
".. c #97908F",
"X. c #939394",
"o. c #9B9494",
"O. c #9B9B9C",
"+. c #9F9FA0",
"@. c #A19FA0",
"#. c #A5A4A5",
/* pixels */
"                        . . . . . . . . . . . . . . . . . . . . . . . . . .                         ",
"                        . . . . . . . . . . . . . . . . . . . . . . . . . .                         ",
"                        o # # # # # # # # # # # # # # # # # # # # # # # # o                         ",
"              . . . . X % : 1 2 2 2 2 2 2 2 2 2 2 2 2 2 2 2 2 2 2 2 2 4 2 % X . . . .               ",
"            . . . . . X & 8 u u u u u u u u u u u u u u u u u u u u u u 9 & X . . . . .             ",
"            = - = @ + % 2 e l l l l l l l l l l l l l l l l l l z u u z y 1 % + # = = @             ",
"        . = i f d q 1 1 8 e l l l l l l l l l l l l l l l l l l u x z u y 7 1 > 5 p a < @ .         ",
"      . . - f [ ` J g e e u l l l l l l l l l l l l l l l l l l z u z u u y t y m I Y a = . .       ",
"      * = i Y X.X.Q k y u h l l l l l l l l l l l l l l l l l l l l l l u u y u S T R f < * @       ",
". . = i d H [ +.| I k y u h l l l l l l l l l l l l l l l l l l l l l l u u u x S R [ H f i < * . . ",
". . , f [ X.+.#...Q k y u h l l l l l l l l l l l l l l l l l l l l l l z u u u S ( { ` R Y a - . . ",
". . , F O.#.#.#...Q k y u l l l l l l l l l l l l l l l l l l l l l l l u u u u S R { { { ` d - . . ",
". . , G +.#.#.#. .Q k y u u l l l l l l l l l l l l l l l l l l u z z l u u y j S T { { { ` d - . . ",
". . , F O.#.#.#...Q k y u l l l l l l l l l l l l l l l l l l l z u z l j y y j S _ { { { ` d - . . ",
". . , F O.+.+.+.| W k y u u l l l l l l l l l l l l l l l l l l u x u z u u y j S _ { { { [ f - . . ",
". . , f X.X.O.O.' L k y u l l l l l l l l l l l l l l l l l l l z u z z u u y j L ' X.O.X.X.f - . . ",
". . - f { { X.{ _ K j y u h l l l l l l l l l l l l l l l l l l l l l l h u y j Q } +.+.+.X.F , . . ",
". . - d ` { { { R S j y u h l l l l l l l l l l l l l l l l l l l l l l h u y k Q ..#.#.#.+.F , . . ",
". . - d ` { { { T S j y u h l l l l l l l l l l l l l l l l l l l l l l h u y k ! ..#.#.#.O.G , . . ",
". . - d ` { { { ( S j y u h l l l l l l l l l l l l l l l l l l l l l l h u u k I o.#.#.#.+.F , . . ",
". . - d ` { [ { ( S j y u u h l l l l l l l l l l l l l l l l l l l l l h u y k ! ..#.#.#.O.F , . . ",
". . - d ` { { { T S j y y u u h l l l l l l l l l l l l l l l l l h h u u y y k I | #.#.#.O.G , . . ",
". . - d ` { { [ T S j y y y u u l l l l l l l l l l l l l l l l l h u y y y e k Q ..#.#.#.O.G , . . ",
". . - d ` { { [ _ S j y y y y y u l l l l l l z l z z l l l l l l h u y e y e k Q ..#.#.#.O.F , . . ",
". . - f { X.X.X._ J k e e e y y u u u u h c A E E E E E x h u u h y y y e e e k I ..#.#.#.O.F , . . ",
". . - F X.O.O.O.] L k e e e e y u u u y h A ! } } } } ! C u u u h y e e e e e k Q ..#.#.#.+.F , . . ",
". . , F O.#.#.#.| Q j e e e y e y y y e g K } #.#.#.#.} K u y y e e e e y e e k Q ..#.#.#.O.F , . . ",
". . , F X.+.O.+.| ~ S n n n n n n n V Z D /  .#.#.#.#. ./ D Z V n n n n n n n S ~ | O.+.+.X.F , . . ",
". . - f { X.X.X.{ ` ~ I I I I I I I ~ / ' | O.#.#.#.#.O.| _ / ~ Q I I I P I P ~ ` | X.X.X.X.f - . . ",
". . - d ` { { X.{ [ [ ' ' ' [ ' ' [ ..O.+.#.#.#.#.#.#.#.#.O.O...[ ' ' ' ' ' ' [ [ { { { { ` d - . . ",
". . - d ` { { { ' _ T T T U T ~ ~ ( ] O.+.X.[ R R R R [ X.+.O.} ` ~ T T T T T T ( ' { { { ` d - . . ",
". . - d ` { { { ( U M b b b m M D L _ o.+.` F i i i i F ` +.o._ W A V m b b b M U ` { { { ` d - . . ",
". . - d ` { { [ R M s 9 9 q r u j B ^  .O.H < O O O O < H +. .! B z g q q 7 q s F ~ { [ { ` d - . . ",
". . - d ` { { { T M r 4 7 7 9 y h x E ) } G i = = = = p G ] ) E x u e 9 7 7 4 q M T { { { ` d - . . ",
". . - d ` { { { T M t 7 9 w w u l z C E ^ P M d f d f F L ! E C z h u e w 7 7 q M T { { { ` d - . . ",
". . - d ` [ { { R M r 7 w u u u l l z v B W ( X.{ X.{ ) W B c x z h h u g w 7 q M T { { [ ` d - . . ",
". . - d ` { [ { T M q 7 w u h l l l l l z E ) o.o.o.o.) E x l l l l l l u w 7 q M R { [ { ` d - . . ",
". . - d ` { { { T M q 8 w u l l l l l l z C E ^ / ^ ^ E C z l l l l l l u w 9 q M T { { { ` d - . . ",
". . - d ` { { { T M q 8 w u l l l l l l l x v B C C B v x l l l l l l l u w 7 q M T { { [ ` d - . . ",
". . - d ` { { { T M r 7 w h l l l l l l l l l l l l l l l l l l l l l l u w 7 q M T { { { ` d - . . ",
". . - d ` [ { { R M q 8 w u l l l l l l l l l l l l l l l l l l l l l l h w 9 q M T { { { ` d - . . ",
". . - d ` { { { T M q 7 w u l l l l l l l l l l l l l l l l l l l l l l g w 7 q M T { { { ` d - . . ",
". . - d ` { { { T M r 7 w y h h l l l l l l l l l l l l l l l l l l h u e e 7 q M T { { [ ` d - . . ",
". . - d ` { { [ T M q 8 9 w e u h l l l l l l l l l l l l l l l l l u e w 9 4 q M T { [ { ` d - . . ",
". . - d ` [ { { T M q 4 7 8 9 e u l l l l l l l l l l l l l l l l u e 9 7 7 4 q M R { [ [ ` d - . . ",
". . - d R ( ` ` U d q 3 3 3 4 8 e u u u u u u u u u u u u u u u u e 8 4 3 3 3 q b Y ` ` ` R d - . . ",
". . = < d d d d a 6 ; & & & ; ; 1 2 2 2 2 2 2 2 2 2 2 2 2 2 2 2 2 1 : & & % % ; 6 a d d d d < = . . ",
"    @ = - - - - = $ + X X X o o # # # # # # # # # # # # # # # # # # + o o X o + @ = - - - = * @     ",
"      . . . . . . . . . . . . . . . . . . . . . . . . . . . . . . . . . . . . . . . . . . . .       ",
"      . . . . . . . . . . . . . . . . . . . . . . . . . . . . . . . . . . . . . . . . . . . .       "
};
