/* XPM */
static char *out[] = {
/* columns rows colors chars-per-pixel */
"50 50 226 2 ",
"   c #573F3D",
".  c #553F3F",
"X  c #583F3C",
"o  c #593F3C",
"O  c #583F3D",
"+  c #59403D",
"@  c #58403E",
"#  c #533E41",
"$  c #513E43",
"%  c #523E42",
"&  c #533E42",
"*  c #533F42",
"=  c #523E43",
"-  c #523F43",
";  c #553F40",
":  c #563F40",
">  c #513E44",
",  c #503E45",
"<  c #513E45",
"1  c #564043",
"2  c #554044",
"3  c #564044",
"4  c #574144",
"5  c #544046",
"6  c #564147",
"7  c #584143",
"8  c #594143",
"9  c #5B4242",
"0  c #5B4243",
"q  c #5C4243",
"w  c #5F4443",
"e  c #584145",
"r  c #594245",
"t  c #584246",
"y  c #584346",
"u  c #594346",
"i  c #5A4346",
"p  c #5A4347",
"a  c #5E4344",
"s  c #5C4347",
"d  c #594447",
"f  c #5A4446",
"g  c #5C4546",
"h  c #5C4447",
"j  c #5D4447",
"k  c #5E4447",
"l  c #58454A",
"z  c #5C4448",
"x  c #5D4749",
"c  c #5F4849",
"v  c #604340",
"b  c #614441",
"n  c #624441",
"m  c #634541",
"M  c #604443",
"N  c #654643",
"B  c #614545",
"V  c #614546",
"C  c #604547",
"Z  c #624646",
"A  c #664744",
"S  c #674744",
"D  c #614847",
"F  c #624947",
"G  c #684844",
"H  c #6A4945",
"J  c #6A4946",
"K  c #6B4A46",
"L  c #6A4A47",
"P  c #6C4A46",
"I  c #6D4A46",
"U  c #6C4A47",
"Y  c #684C45",
"T  c #614649",
"R  c #62474A",
"E  c #63474A",
"W  c #644748",
"Q  c #624A49",
"!  c #634B49",
"~  c #674848",
"^  c #644B49",
"/  c #654C4A",
"(  c #614B4D",
")  c #624B4C",
"_  c #634B4C",
"`  c #614C4F",
"'  c #654D4D",
"]  c #684948",
"[  c #684949",
"{  c #694949",
"}  c #6A4A49",
"|  c #684A4A",
" . c #6D4B49",
".. c #6A4E48",
"X. c #6C4F48",
"o. c #6F4C4B",
"O. c #684A4C",
"+. c #714D48",
"@. c #724D4A",
"#. c #734E4A",
"$. c #744E49",
"%. c #744E4A",
"&. c #754F4A",
"*. c #754F4B",
"=. c #764F4A",
"-. c #764F4B",
";. c #734F4E",
":. c #6D5048",
">. c #6C514C",
",. c #6D514D",
"<. c #6E534D",
"1. c #6F534E",
"2. c #6F544E",
"3. c #76504B",
"4. c #77504B",
"5. c #77514B",
"6. c #77514D",
"7. c #74504F",
"8. c #77514E",
"9. c #71554F",
"0. c #78504B",
"q. c #79514B",
"w. c #79514C",
"e. c #7A514C",
"r. c #7A524C",
"t. c #7D534D",
"y. c #7D534E",
"u. c #7D544E",
"i. c #695253",
"p. c #6A5354",
"a. c #6B5455",
"s. c #775150",
"d. c #745852",
"f. c #735956",
"g. c #755954",
"h. c #775B55",
"j. c #7C5B50",
"k. c #7B5C53",
"l. c #7D5C52",
"z. c #7F5D52",
"x. c #785A54",
"c. c #795B54",
"v. c #7B5C55",
"b. c #7C5D55",
"n. c #735B59",
"m. c #775C58",
"M. c #7E6058",
"N. c #80554F",
"B. c #815550",
"V. c #835751",
"C. c #845851",
"Z. c #855852",
"A. c #855853",
"S. c #865852",
"D. c #875953",
"F. c #825F53",
"G. c #875954",
"H. c #885A53",
"J. c #895A54",
"K. c #8A5A54",
"L. c #8A5B54",
"P. c #8B5B54",
"I. c #8A5B55",
"U. c #8B5B55",
"Y. c #8C5C55",
"T. c #8D5C55",
"R. c #8D5D56",
"E. c #846358",
"W. c #876558",
"Q. c #85645B",
"!. c #85675E",
"~. c #86685F",
"^. c #8D695B",
"/. c #8F6A5C",
"(. c #916B5B",
"). c #906B5C",
"_. c #926C5D",
"`. c #936D5D",
"'. c #936D5E",
"]. c #946E5E",
"[. c #956F5E",
"{. c #966F5E",
"}. c #96705F",
"|. c #97705F",
" X c #836762",
".X c #856964",
"XX c #886A60",
"oX c #8C6C63",
"OX c #8F6D62",
"+X c #896C66",
"@X c #8C6D64",
"#X c #926E60",
"$X c #916E62",
"%X c #967060",
"&X c #977060",
"*X c #917167",
"=X c #987261",
"-X c #997261",
";X c #997262",
":X c #997362",
">X c #9B7565",
",X c #9C7565",
"<X c #9D7869",
"1X c #9E7969",
"2X c #9F7A6A",
"3X c #9C7B6F",
"4X c #9E7D70",
"5X c #9E7D71",
"6X c #A17C6D",
"7X c #A37F6F",
"8X c #A27F70",
"9X c #A27F71",
"0X c #A28073",
"qX c #A58172",
"wX c #A68273",
"eX c #A18074",
"rX c #A58375",
"tX c #A68374",
"yX c #A78375",
"uX c #A68476",
"iX c #A68477",
"pX c #A78577",
"aX c #A88576",
"sX c #A88577",
"dX c #AA8778",
"fX c #AA8779",
/* pixels */
", , ' b.`.|.|.|.|.|.|.|.|.|.|.|.|.).c._ , , , , , , , s { -.0.0.0.0.0.0.0.0.0.0.0.0.%.~ p , , , , , ",
", , ' b.`.|.|.|.|.|.|.|.|.|.|.|.|.).c._ , , , , , , , s { -.0.0.0.0.0.0.0.0.0.0.0.0.%.~ p , , , , , ",
"' ' d.E.].|.|.|.|.|.|.|.|.|.|.|.|.'.Q.m.p.` l , 5 t s W  .-.0.0.0.0.0.0.0.0.0.0.0.0.-.o.| R z 6 , , ",
"b.b.E.^.[.|.|.|.|.|.|.|.|.|.|.|.|.%X$X@X.Xn.` , t C [  .@.4.0.0.0.0.0.0.0.0.0.0.0.0.0.6.8.7.O.z , , ",
"`.`.].[.|.|.|.|.|.|.|.|.|.|.|.|.|.=X<X9XeX.Xp.< j { *.-.4.0.0.0.0.0.0.0.0.0.0.0.0.0.e.N.S.G.7.R , , ",
"|.|.|.|.|.|.|.|.|.|.|.|.|.|.|.|.|.;X2XwXiX+Xa.< k } 4.0.0.0.0.0.0.0.0.0.0.0.0.0.0.0.e.B.H.I.s.E , , ",
"|.|.|.|.|.|.|.|.|.|.|.|.|.|.|.|.|.;X2XwXiX+Xa.< k } 4.0.0.0.0.0.0.0.0.0.0.0.0.0.0.0.e.B.H.I.s.E , , ",
"|.|.|.|.|.|.|.|.|.|.|.|.|.|.|.|.|.;X2XwXiX+Xa.< k } 4.0.0.0.0.0.0.0.0.0.0.0.0.0.0.0.e.B.H.I.s.E , , ",
"|.|.|.|.|.|.|.|.|.|.|.|.|.|.|.|.|.;X2XwXiX+Xa.< k } 4.0.0.0.0.0.0.0.0.0.0.0.0.0.0.0.e.B.H.I.s.E , , ",
"|.|.|.|.|.|.|.|.|.|.|.|.|.|.|.|.|.;X2XwXiX+Xa.< k } 4.0.0.0.0.0.0.0.0.0.0.0.0.0.0.0.e.B.H.I.s.E , , ",
"|.|.|.|.|.|.|.|.|.|.|.|.|.|.|.|.|.;X2XwXiX+Xa.< k } 4.0.0.0.0.0.0.0.0.0.0.0.0.0.0.0.e.B.H.I.s.E , , ",
"|.|.|.|.|.|.|.|.|.|.|.|.|.|.|.|.|.;X2XwXiX+Xa.< k } 4.0.0.0.0.0.0.0.0.0.0.0.0.0.0.0.e.B.H.I.s.E , , ",
"|.|.|.|.|.|.|.|.|.|.|.|.|.|.|.|.|.;X2XwXiX+Xa.< k } 4.0.0.0.0.0.0.0.0.0.0.0.0.0.0.0.e.B.H.I.s.E , , ",
"|.|.|.|.|.|.|.|.|.|.|.|.|.|.|.|.|.;X2XwXiX+Xa.< k } 4.0.0.0.0.0.0.0.0.0.0.0.0.0.0.0.e.B.H.I.s.E , , ",
"|.|.|.|.|.|.|.|.|.|.|.|.|.|.&X=X:X,X6XtXiX+Xa.< k } 4.0.0.0.0.0.0.0.0.0.0.0.0.0.w.e.y.V.J.I.s.E , , ",
"|.|.|.|.|.|.|.|.|.|.|.|.|.|.=X>X1X6XqXaXiX+Xa.< k } 4.0.0.0.0.0.0.0.0.0.0.0.0.w.t.N.V.D.P.I.s.E , , ",
"|.|.|.|.|.|.|.|.|.|.|.|.|.|.:X1X7XyXsXdXiX+Xa.< k } 4.0.0.0.0.0.0.0.0.0.0.0.0.e.N.Z.K.U.T.I.s.E , , ",
"(.(.`.}.-X;X;X;X;X;X;X;X;X;X,X6XyXfXpXrX5X Xi.< h ] $.=.0.e.e.e.e.e.e.e.e.e.e.y.V.K.R.Y.L.A.;.T , , ",
"j.j.W.#X<X2X2X2X2X2X2X2X2X2X6XqXsXpX3X*X!.f.( < r B H +.q.N.B.B.B.B.B.B.B.B.B.V.D.U.Y.C.u.*.[ h , , ",
"Y Y k.OX8XwXwXwXwXwXwXwXwXwXtXaXdXrX*XM.>.Q d , 1 9 v P w.S.H.H.H.H.H.H.H.H.H.J.P.T.L.u.+.N a 4 , , ",
"O O 2.XX0XuXuXuXuXuXuXuXuXuXuXuXuX4X!.>.  ; % , & .   S 5.H.P.P.P.P.P.P.P.P.P.P.P.P.S.&.N   ; % , , ",
". . / h.XXoXoXoXoXoXoXoXoXoXoXoXoX~.g.! ; & $ , = # ; M U 5.r.r.r.r.r.r.r.r.r.r.r.r.3.L w ; & $ , , ",
"% % g / 2.9.9.9.9.9.9.9.9.9.9.9.9.<.^ f % $ > , > = % 8 M S G G G G G G G G G G G G A w 7 % $ > , , ",
", , * : + + + + + + + + + + + + + @ ; - , , , , , , , & ; O o o o o o o o o o o o o O ; = , , , , , ",
", , u F X.:.:.:.:.:.:.:.:.:.:.:.:...D y , , , , , , , 3 q n m m m m m m m m m m m m b 0 2 , , , , , ",
", , c 1.z.F.F.F.F.F.F.F.F.F.F.F.F.l.,.x , , , , , , , r Z K I I I I I I I I I I I I J V e , , , , , ",
", , ' v._.{.{.{.{.{.{.{.{.{.{.{.{./.x.) , , , , , , , s [ &.4.4.4.4.4.4.4.4.4.4.4.4.#.~ i , , , , , ",
"' ' d.E.].|.|.|.|.|.|.|.|.|.|.|.|.'.Q.m.p.` l , 5 t s W  .-.0.0.0.0.0.0.0.0.0.0.0.0.-.o.| R z 6 , , ",
"b.b.E.^.[.|.|.|.|.|.|.|.|.|.|.|.|.%X$X@X.Xn.` , t C [  .@.4.0.0.0.0.0.0.0.0.0.0.0.0.0.6.8.7.O.z , , ",
"`.`.].[.|.|.|.|.|.|.|.|.|.|.|.|.|.=X<X9XeX.Xp.< j { *.-.4.0.0.0.0.0.0.0.0.0.0.0.0.0.e.N.S.G.7.R , , ",
"|.|.|.|.|.|.|.|.|.|.|.|.|.|.|.|.|.;X2XwXiX+Xa.< k } 4.0.0.0.0.0.0.0.0.0.0.0.0.0.0.0.e.B.H.I.s.E , , ",
"|.|.|.|.|.|.|.|.|.|.|.|.|.|.|.|.|.;X2XwXiX+Xa.< k } 4.0.0.0.0.0.0.0.0.0.0.0.0.0.0.0.e.B.H.I.s.E , , ",
"|.|.|.|.|.|.|.|.|.|.|.|.|.|.|.|.|.;X2XwXiX+Xa.< k } 4.0.0.0.0.0.0.0.0.0.0.0.0.0.0.0.e.B.H.I.s.E , , ",
"|.|.|.|.|.|.|.|.|.|.|.|.|.|.|.|.|.;X2XwXiX+Xa.< k } 4.0.0.0.0.0.0.0.0.0.0.0.0.0.0.0.e.B.H.I.s.E , , ",
"|.|.|.|.|.|.|.|.|.|.|.|.|.|.|.|.|.;X2XwXiX+Xa.< k } 4.0.0.0.0.0.0.0.0.0.0.0.0.0.0.0.e.B.H.I.s.E , , ",
"|.|.|.|.|.|.|.|.|.|.|.|.|.|.|.|.|.;X2XwXiX+Xa.< k } 4.0.0.0.0.0.0.0.0.0.0.0.0.0.0.0.e.B.H.I.s.E , , ",
"|.|.|.|.|.|.|.|.|.|.|.|.|.|.|.|.|.;X2XwXiX+Xa.< k } 4.0.0.0.0.0.0.0.0.0.0.0.0.0.0.0.e.B.H.I.s.E , , ",
"|.|.|.|.|.|.|.|.|.|.|.|.|.|.|.|.|.;X2XwXiX+Xa.< k } 4.0.0.0.0.0.0.0.0.0.0.0.0.0.0.0.e.B.H.I.s.E , , ",
"|.|.|.|.|.|.|.|.|.|.|.|.|.|.|.|.|.;X2XwXiX+Xa.< k } 4.0.0.0.0.0.0.0.0.0.0.0.0.0.0.0.e.B.H.I.s.E , , ",
"|.|.|.|.|.|.|.|.|.|.|.|.|.|.&X=X:X,X6XtXiX+Xa.< k } 4.0.0.0.0.0.0.0.0.0.0.0.0.0.w.e.y.V.J.I.s.E , , ",
"|.|.|.|.|.|.|.|.|.|.|.|.|.|.=X>X1X6XqXaXiX+Xa.< k } 4.0.0.0.0.0.0.0.0.0.0.0.0.w.t.N.V.D.P.I.s.E , , ",
"|.|.|.|.|.|.|.|.|.|.|.|.|.|.:X1X7XyXsXdXiX+Xa.< k } 4.0.0.0.0.0.0.0.0.0.0.0.0.e.N.Z.K.U.T.I.s.E , , ",
"(.(.`.}.-X;X;X;X;X;X;X;X;X;X,X6XyXfXpXrX5X Xi.< h ] $.=.0.e.e.e.e.e.e.e.e.e.e.y.V.K.R.Y.L.A.;.T , , ",
"j.j.W.#X<X2X2X2X2X2X2X2X2X2X6XqXsXpX3X*X!.f.( < r B H +.q.N.B.B.B.B.B.B.B.B.B.V.D.U.Y.C.u.*.[ h , , ",
"Y Y k.OX8XwXwXwXwXwXwXwXwXwXtXaXdXrX*XM.>.Q d , 1 9 v P w.S.H.H.H.H.H.H.H.H.H.J.P.T.L.u.+.N a 4 , , ",
"O O 2.XX0XuXuXuXuXuXuXuXuXuXuXuXuX4X!.>.  ; % , & .   S 5.H.P.P.P.P.P.P.P.P.P.P.P.P.S.&.N   ; % , , ",
". . / h.XXoXoXoXoXoXoXoXoXoXoXoXoX~.g.! ; & $ , = # ; M U 5.r.r.r.r.r.r.r.r.r.r.r.r.3.L w ; & $ , , ",
"% % g / 2.9.9.9.9.9.9.9.9.9.9.9.9.<.^ f % $ > , > = % 8 M S G G G G G G G G G G G G A w 7 % $ > , , ",
", , % . O X X X X X X X X X X X X   ; = , , , , , , , % . O X X X X X X X X X X X X   ; = , , , , , ",
", , % . O X X X X X X X X X X X X   ; = , , , , , , , % . O X X X X X X X X X X X X   ; = , , , , , "
};
