/* XPM */
static char *out[] = {
/* columns rows colors chars-per-pixel */
"50 50 187 2 ",
"   c None",
".  c #050506",
"X  c #060608",
"o  c #0A0709",
"O  c #0B0A0C",
"+  c #130A0C",
"@  c #1B0C0D",
"#  c #0F0F11",
"$  c #150E11",
"%  c #131215",
"&  c #171619",
"*  c #18171A",
"=  c #1B1A1D",
"-  c #260D0F",
";  c #260F10",
":  c #241012",
">  c #2B1011",
",  c #25191B",
"<  c #331213",
"1  c #3B1415",
"2  c #3B1C1E",
"3  c #1D1E21",
"4  c #211F23",
"5  c #1D2023",
"6  c #212326",
"7  c #28262A",
"8  c #272B2E",
"9  c #2B2A2C",
"0  c #25262A",
"q  c #2D2D31",
"w  c #382D30",
"e  c #333234",
"r  c #3C353A",
"t  c #3B393E",
"y  c #372427",
"u  c #441718",
"i  c #48181A",
"p  c #561B1C",
"a  c #5D1D1E",
"s  c #651F20",
"d  c #482123",
"f  c #442729",
"g  c #572627",
"h  c #402F33",
"j  c #4D3438",
"k  c #573623",
"l  c #6C2223",
"z  c #732324",
"x  c #7F2A2B",
"c  c #6D3032",
"v  c #783739",
"b  c #6A4838",
"n  c #3F3C41",
"m  c #413E43",
"M  c #3B4145",
"N  c #444247",
"B  c #46454A",
"V  c #4B4A4E",
"C  c #48454B",
"Z  c #544A4F",
"A  c #4D4D52",
"S  c #474B50",
"D  c #524E55",
"F  c #4B545A",
"G  c #4A5257",
"H  c #515153",
"J  c #57545B",
"K  c #50595F",
"L  c #5C5A5D",
"P  c #5A535A",
"I  c #694346",
"U  c #6C4E53",
"Y  c #7B4E53",
"T  c #67585E",
"R  c #714549",
"E  c #5F5C61",
"W  c #565E63",
"Q  c #635F66",
"!  c #566066",
"~  c #656067",
"^  c #66636A",
"/  c #69656C",
"(  c #6A6C6F",
")  c #746367",
"_  c #6D6971",
"`  c #666A71",
"'  c #736E76",
"]  c #756F78",
"[  c #74747C",
"{  c #7B757E",
"}  c #787A7B",
"|  c #832626",
" . c #8A2929",
".. c #952C2C",
"X. c #9E2E2E",
"o. c #83383B",
"O. c #963333",
"+. c #A32F2F",
"@. c #AC3232",
"#. c #AE3B3B",
"$. c #B13E3E",
"%. c #934E25",
"&. c #9A5531",
"*. c #B84739",
"=. c #C05332",
"-. c #C4582F",
";. c #CD6429",
":. c #99474A",
">. c #8F5257",
",. c #A24648",
"<. c #A74C47",
"1. c #A05255",
"2. c #AF5745",
"3. c #8A685B",
"4. c #BB6642",
"5. c #AF6651",
"6. c #A7755F",
"7. c #A76045",
"8. c #955E63",
"9. c #8F646B",
"0. c #9B6662",
"q. c #8D6C73",
"w. c #88767E",
"e. c #8B7A7E",
"r. c #86747C",
"t. c #9D7A70",
"y. c #956C72",
"u. c #A86864",
"i. c #BD7172",
"p. c #BB7165",
"a. c #C37040",
"s. c #C37871",
"d. c #7F7C81",
"f. c #737D85",
"g. c #837D86",
"h. c #877780",
"j. c #7C838B",
"k. c #768089",
"l. c #7A8891",
"z. c #838384",
"x. c #8C8C8D",
"c. c #87848D",
"v. c #888690",
"b. c #808F98",
"n. c #888C95",
"m. c #86969E",
"M. c #8D949E",
"N. c #91969E",
"B. c #939394",
"V. c #B1898D",
"C. c #BC9993",
"Z. c #939CA6",
"A. c #949FA9",
"S. c #9096A0",
"D. c #97A4AD",
"F. c #99A3AC",
"G. c #98A7B1",
"H. c #9BADB7",
"J. c #9DAFB9",
"K. c #9FB1BA",
"L. c #A1A1A1",
"P. c #ABABAC",
"I. c #BEA0A0",
"U. c #A3ABB0",
"Y. c #B3AFB5",
"T. c #A4B4BD",
"R. c #B9BABD",
"E. c #CB8080",
"W. c #D0ACA9",
"Q. c #CCA6A8",
"!. c #ABBAC3",
"~. c #BAC3C9",
"^. c #C4C4C4",
"/. c #C7C7C8",
"(. c #CECECF",
"). c #C1CCD2",
"_. c #C5D0D5",
"`. c #CFD7DC",
"'. c #DBDADB",
"]. c #E6C1C1",
"[. c #DCDDE0",
"{. c #DFE2E4",
"}. c #E1E6E9",
"|. c #E5EAEC",
" X c #E2E2E2",
".X c #F1F1F1",
"XX c #FCFCFC",
/* pixels */
"                                            X X X                                                   ",
"                                            X X X                                                   ",
"                                          - < 1 < :                                                 ",
"                                  X X X + 1 p l p < o                                               ",
"                                X X X X + u z +.l 1 o X                                             ",
"                                X o + - 1 g o.:.c 2 o X X                                           ",
"                                X + > p l v >.>.I y o X X o X X X X X X                             ",
"                                X + u z O.:.9.{ P q o X X X X X X X X X X                           ",
"                                X @ i v ,.8.q.g.~ C 8 8 8 8 8 8 8 8 8 8 8 5                         ",
"                                X $ f R 8.9.r.g.[ ` ! W ! ! ! ! ! ! ! ! K M 5                       ",
"                                X % r T r.w.g.g.c.n.m.m.m.m.m.m.m.m.m.m.k.F 5 O                     ",
"                              & = 7 V _ v.v.v.n.M.F.H.H.H.H.J.J.H.H.H.H.l.! 5 O X                   ",
"                            & q n A ^ d.M.S.S.S.Z.G.H.H.H.H.H.J.H.H.H.H.l.K 5 X X                   ",
"                          X & t L ' j.M.D.G.D.D.G.G.J.H.H.H.H.H.H.H.H.H.m.K 0 X X                   ",
"                        X X * N _ n.S.D.H.H.H.H.H.H.H.H.H.H.H.H.H.H.J.K.l.! 5 O X                   ",
"                        X X = B [ S.A.G.H.H.H.H.H.H.H.H.H.H.H.H.H.H.H.K.l.K 0 X X                   ",
"                        X X 3 S f.D.G.G.H.H.H.H.H.H.J.J.J.J.H.H.H.H.H.J.l.W 0 X X                   ",
"                        X X 3 F l.J.J.J.J.K.K.!.!.K.T.!.T.T.T.T.T.T.T.T.m.! 5 . X                   ",
"                        X X 3 G l.H.H.H.J.!.~.).~._._._.`.~.~.`._._._._.U.( 8 O O                   ",
"                        X X 3 G l.J.H.H.K.~.[.|.|.|.|.|.|.|.|.|.|.|.|.|.^.} 8 . X                   ",
"                        X X 3 G l.G.H.H.T.~.}.XXXX.X.X.X.X.X.X.X.X.X.X.X/.} e . X                   ",
"                        X X 3 S f.Z.F.G.T.).}.XX X^.L.L.F.F.L.L.L.L.L.L.x.H 6 . X                   ",
"                        X X = N ' n.Z.G.T.).}.XX^.x.J H H H H H H H H H N 9 & . X                   ",
"                        X X & n ^ j.M.Z.K.).}.XXP.L # O O O O o . . O O O . . . X                   ",
"                        X X % q C E [ v.A.^.{.XX/.B.L L L L N 8 # & e H V e & . X                   ",
"                        X X O = 0 r W [ S.!.[.XX X/.P.P.P.P.d.V & 8 E B.x.L 0 . X                   ",
"                        X X X o o % m Q v.Y.'.XXXXXXXXXXXXXXR.( 5 t x.[.(.d.e . X                   ",
"                          X X X X $ h Y y.V.Q.].].].].].].].C.3.k b t.W.I.) 9 . X                   ",
"                              X X $ d v 1.u.i.E.E.E.E.E.E.E.p.7.%.&.5.s.u.I , X X                   ",
"                                X $ d x #.#.#.#.$.$.$.$.*.#.*.-.;.;.-.*.O.g : X X                   ",
"                              > + $ d v ,.,.,.,.,.,.,.,.,.,.&.4.;.5.2.<.o.g : . X                   ",
"                             .i @ $ h R 8.8.8.8.8.8.8.0.8.8.0.u.6.6.u.0.Y j , X X                   ",
"                          @...a : $ r Q w.w.h.h.h.w.w.r.h.h.h.h.e.e.e.w.) m , X .                   ",
"                        @.@...a > % n Q g.g.g.g.h.' ^ ^ ^ / ^ ^ / ' [ h._ N 3 o X                   ",
"                        @.@...a : % r Q g.g.g.g._ P m m n n n n m Z Q { _ N 3 X X                   ",
"                        @.@...a ; $ n Q g.g.g.g.E n = * * & 3 * * q D ] _ N = X X                   ",
"                        @.@...s > % n Q g.r.[ / Z w ; @ + o # $ = q C Q L t = X X                   ",
"                      @.@.@...a : % n Q d./ P N j g p 2 ; o * q n C C C n 7 % X                     ",
"                    @.@.@.@...a : % n Q d.E t = d l  .s 1 + 4 m Q L m 7 * % O                       ",
"                  X.+.+.+.+. .p ; $ e D _ V 7 o 1 s +.z 1 O 4 m ^ L r % X .                         ",
"                    | | | | l u @ # 4 r B e 3 X < p | p > o * q N n 9 % X X                         ",
"                            < - O X $ 3 3 = %         - + X # % 3 = & o                             ",
"                              . . . . X X . .         X . o . . X X .                               ",
"                              . . . . . X .             . . . . . X X                               ",
"                                  X . . .                 . . X .                                   ",
"                                                                                                    ",
"                                                                                                    ",
"                                                                                                    ",
"                                                                                                    ",
"                                                                                                    "
};
