/* XPM */
static char *out[] = {
/* columns rows colors chars-per-pixel */
"50 50 212 2 ",
"   c #323C4F",
".  c #333D50",
"X  c #333D51",
"o  c #333E51",
"O  c #343E52",
"+  c #343F52",
"@  c #354054",
"#  c #364155",
"$  c #374256",
"%  c #374257",
"&  c #384257",
"*  c #384357",
"=  c #384358",
"-  c #384458",
";  c #394458",
":  c #394459",
">  c #394559",
",  c #3A4559",
"<  c #39455A",
"1  c #3A455A",
"2  c #3A455B",
"3  c #3B465A",
"4  c #3A465B",
"5  c #3C485E",
"6  c #3D485E",
"7  c #3C495E",
"8  c #3D495F",
"9  c #3E495F",
"0  c #3D4A60",
"q  c #3E4A60",
"w  c #3E4A61",
"e  c #3F4A61",
"r  c #3E4B61",
"t  c #3F4B61",
"y  c #3F4B62",
"u  c #404C62",
"i  c #404C63",
"p  c #404D64",
"a  c #414D64",
"s  c #414E65",
"d  c #414E66",
"f  c #414F66",
"g  c #424E66",
"h  c #424F66",
"j  c #424F67",
"k  c #435066",
"l  c #435067",
"z  c #445067",
"x  c #435068",
"c  c #435168",
"v  c #445168",
"b  c #455168",
"n  c #445069",
"m  c #445169",
"M  c #455169",
"N  c #44516A",
"B  c #45516A",
"V  c #44526A",
"C  c #45526A",
"Z  c #45526B",
"A  c #45536B",
"S  c #46536A",
"D  c #47536A",
"F  c #46536B",
"G  c #47536B",
"H  c #47546B",
"J  c #46526C",
"K  c #46536C",
"L  c #46546C",
"P  c #46546D",
"I  c #47546D",
"U  c #47556D",
"Y  c #47546E",
"T  c #47556E",
"R  c #48556E",
"E  c #49556E",
"W  c #48556F",
"Q  c #49566E",
"!  c #48566F",
"~  c #49566F",
"^  c #49576F",
"/  c #485670",
"(  c #495670",
")  c #495770",
"_  c #495771",
"`  c #4A5770",
"'  c #4A5772",
"]  c #4B5871",
"[  c #4A5872",
"{  c #4B5873",
"}  c #4B5973",
"|  c #4C5972",
" . c #4D5A73",
".. c #4B5874",
"X. c #4B5974",
"o. c #4C5A75",
"O. c #4D5A75",
"+. c #4D5B75",
"@. c #4E5B74",
"#. c #4D5A76",
"$. c #4D5B76",
"%. c #4E5C75",
"&. c #4E5D76",
"*. c #4E5C77",
"=. c #4F5D77",
"-. c #4F5E77",
";. c #4F5D78",
":. c #4F5C79",
">. c #4F5D79",
",. c #505E77",
"<. c #505E78",
"1. c #505F79",
"2. c #515F79",
"3. c #505F7A",
"4. c #505E7B",
"5. c #505F7B",
"6. c #515F7B",
"7. c #515F7C",
"8. c #52607A",
"9. c #53617B",
"0. c #52617C",
"q. c #52607D",
"w. c #53617E",
"e. c #53617F",
"r. c #53627F",
"t. c #54627D",
"y. c #54627E",
"u. c #55647F",
"i. c #536280",
"p. c #546280",
"a. c #546380",
"s. c #546381",
"d. c #566580",
"f. c #576580",
"g. c #566581",
"h. c #576681",
"j. c #576683",
"k. c #586681",
"l. c #586782",
"z. c #596783",
"x. c #586784",
"c. c #586686",
"v. c #586786",
"b. c #596787",
"n. c #5A6884",
"m. c #5A6984",
"M. c #596886",
"N. c #5A6986",
"B. c #5A6987",
"V. c #5B6B87",
"C. c #5A6989",
"Z. c #5B6A89",
"A. c #5B6A8A",
"S. c #5B6B8B",
"D. c #5C6B88",
"F. c #5C6B8B",
"G. c #5C6C88",
"H. c #5D6C89",
"J. c #5E6D89",
"K. c #5D6C8A",
"L. c #5E6D8A",
"P. c #5F6E8B",
"I. c #5C6C8C",
"U. c #5D6C8C",
"Y. c #5D6D8D",
"T. c #5E6D8C",
"R. c #5E6D8D",
"E. c #5F6F8C",
"W. c #5F6F8D",
"Q. c #5E6E8E",
"!. c #5F6E8E",
"~. c #5F6F8F",
"^. c #606F8C",
"/. c #606F8F",
"(. c #61708D",
"). c #62718E",
"_. c #607090",
"`. c #617090",
"'. c #617190",
"]. c #617191",
"[. c #637391",
"{. c #627292",
"}. c #637393",
"|. c #647393",
" X c #647491",
".X c #657593",
"XX c #647494",
"oX c #657595",
"OX c #677795",
"+X c #657696",
"@X c #667696",
"#X c #677797",
"$X c #677898",
"%X c #687898",
"&X c #697998",
"*X c #697999",
"=X c #697A9A",
"-X c #6A7A9A",
";X c #6B7B9A",
":X c #6A7B9B",
">X c #6B7B9B",
",X c #6B7C9B",
"<X c #6B7C9C",
"1X c #6C7C9C",
"2X c #6C7D9D",
"3X c #6D7D9D",
"4X c #6D7E9D",
"5X c #6D7E9E",
"6X c #6E7E9E",
"7X c #6E7F9E",
"8X c #6E7F9F",
"9X c #6F80A0",
/* pixels */
"s s 7 * .                                       $ 5 s 7 * .                                         ",
"s s 7 * .                                       $ 5 s 7 * .                                         ",
"s s h k z z z z z z z z z z z z z z z z z z z z l h s h k z z z z z z z z z z z z z z z z z z z z z ",
"s s R =.f.k.k.k.k.k.k.k.k.k.k.k.k.k.k.k.k.k.k.h.<.~ d R =.f.k.k.k.k.k.k.k.k.k.k.k.k.k.k.k.k.k.k.k.k.",
"s s %.V.&X,X,X,X,X,X,X,X,X,X,X,X,X,X,X,X,X,X,X;XH.-.h %.V.&X,X,X,X,X,X,X,X,X,X,X,X,X,X,X,X,X,X,X,X,X",
"s s =.L.2X6X2X:X-X-X-X-X-X-X-X-X-X-X-X-X-X1X5X8XE.2.h =.L.2X6X2X:X-X-X-X-X-X-X-X-X-X-X-X-X-X1X5X9X9X",
"s s =.L.2X2X%XXX}.}.}.}.}.}.}.}.}.}.}.}.|.$X<X8XE.2.h =.L.2X2X%XXX}.}.}.}.}.}.}.}.}.}.}.}.|.$X<X9X9X",
"s s =.L.2X:XXXR.F.F.F.F.F.F.F.F.F.F.F.F.Y.}.=X8XE.2.h =.L.2X:XXXR.F.F.F.F.F.F.F.F.F.F.F.F.Y.}.=X9X9X",
"q q Q t.^.K.x.w.q.e.a.p.e.q.7.7.7.7.7.7.q.j.H.(.u.` r Q t.^.K.x.w.q.e.a.p.e.q.7.7.7.7.7.7.q.j.H.).).",
": : t S  .| E Z K ( X.} / J N N N N N N B R ] @.H u < t S  .| E Z K ( X.} / J N N N N N N B R ] @.@.",
"+ + # * 1 1 : * 4 t l j w 2 & & & & & & * ; , 1 = # + # * 1 1 : * 4 t l j w 2 & & & & & & * ; , 3 3 ",
"6 6 6 6 6 6 6 6 9 y p p t 9 6 6 6 6 6 6 6 6 6 6 6 6 6 6 6 6 6 6 6 9 y p p t 9 6 6 6 6 6 6 6 6 6 6 6 ",
",.,.,.,.,.,.,.,. .R x v Q @.,.,.,.,.,.,.,.,.,.,.,.,.,.,.,.,.,.,.,. .R x v Q @.,.,.,.,.,.,.,.,.,.,.,.",
" X X X X X X X XG.2.F U 9.J. X X X X X X X X X X X X X X X X X X XG.2.F U 9.J. X X X X X X X X X X X",
"2X2X2X2X2X5X8X9X.Xd.U ) l.OX9X8X3X2X2X2X2X2X2X2X2X2X2X2X2X2X5X8X9X.Xd.U ) l.OX9X8X3X2X2X2X2X5X8X9X9X",
"oXoXoXoXoX%X<X8X.Xd.U ) l.OX8X>X$XoXoXoXoXoXoXoXoXoXoXoXoXoX%X<X8X.Xd.U ) l.OX8X>X$XoXoXoX@X*X2X9X9X",
"!.!.!.!.!.}.%X5X.Xd.U ) l.OX3X$X{.!.!.!.!.!.!.!.!.!.!.!.!.!.}.%X5X.Xd.U ) l.OX3X$X{.!.!.!./.oX:X9X9X",
"C.C.C.C.C.!.oX<X[.u.U ^ h..X:XXXQ.C.C.C.C.C.C.C.C.C.C.C.C.C.!.oX<X[.u.U ^ h..X:XXXQ.C.C.C.A.].#X5X5X",
"C.C.C.C.C.U.].oXT.0.L R y.W.XX`.U.C.C.C.C.C.C.C.C.C.C.C.C.C.U.].oXT.0.L R y.W.XX`.U.C.C.C.A.!.{.@X@X",
"C.C.C.C.C.S.U.!.M.;.A P 3.B.!.U.A.C.C.C.C.C.C.C.C.C.C.C.C.C.S.U.!.M.;.A P 3.B.!.U.A.C.C.C.C.F.R.~.~.",
"b.b.v.v.c.c.c.c.w.} c V o.i.c.c.c.c.c.c.c.c.c.c.v.v.b.v.v.c.c.c.c.w.} c V o.i.c.c.c.c.c.c.c.c.c.c.c.",
"6.6.>.$...{ { { Y j 0 w x W { { { { { { { { { { #.:.5.>.$...{ { { Y j 0 w x W { { { { { { { { { { { ",
"( ( Z g e q q q 5 2 * = 2 6 q q q q q q q q q w g Z / Z g e q q q 5 2 * = 2 6 q q q q q q q q q q q ",
"s s 8 - O X X X X X X X X X X X X X X X X X X o = 5 s 8 - O X X X X X X X X X X X X X X X X X X X X ",
"s s l b S G G G G G G G G G G G G G G G G G G D M l s l b S G G G G G G G G G G G G G G G G G G G G ",
"s s Q 2.z.m.m.m.m.m.m.m.m.m.m.m.m.m.m.m.m.m.m.n.8.` f Q 2.z.m.m.m.m.m.m.m.m.m.m.m.m.m.m.m.m.m.m.m.m.",
"s s &.H.,X7X7X7X7X7X7X7X7X7X7X7X7X7X7X7X7X7X7X4XP.1.h &.H.,X7X7X7X7X7X7X7X7X7X7X7X7X7X7X7X7X7X7X7X7X",
"s s =.L.2X5X<X=X*X*X*X*X*X*X*X*X*X*X*X*X*X<X5X8XE.2.h =.L.2X5X<X=X*X*X*X*X*X*X*X*X*X*X*X*X*X<X5X9X9X",
"s s =.L.2X1X$X}.{.{.{.{.{.{.{.{.{.{.{.{.}.#X<X8XE.2.h =.L.2X1X$X}.{.{.{.{.{.{.{.{.{.{.{.{.}.#X<X9X9X",
"s s =.L.2X-X|.Y.A.A.A.A.A.A.A.A.A.A.A.A.I.}.*X8XE.2.h =.L.2X-X|.Y.A.A.A.A.A.A.A.A.A.A.A.A.I.}.*X9X9X",
"s s +.N.#X+X`.F.C.C.C.C.C.C.C.C.C.C.C.C.A./.oX*XD.=.h +.N.#X+X`.F.C.C.C.C.C.C.C.C.C.C.C.C.A./.oX-X-X",
"s s } g.'.`.R.A.C.C.C.C.C.C.C.C.C.C.C.C.A.Y._.{.j.O.h } g.'.`.R.A.C.C.C.C.C.C.C.C.C.C.C.C.A.Y._.}.}.",
"s s _ q.Z.F.A.C.C.C.C.C.C.C.C.C.C.C.C.C.C.A.S.F.w.[ h _ q.Z.F.A.C.C.C.C.C.C.C.C.C.C.C.C.C.C.A.S.F.F.",
"q q n ' 4.7.7.7.q.e.a.p.e.q.7.7.7.7.7.7.7.7.7.7.{ N w n ' 4.7.7.7.q.e.a.p.e.q.7.7.7.7.7.7.7.7.7.7.7.",
": : 5 i n N N N K ( X.} / J N N N N N N N N N n a 8 > 5 i n N N N K ( X.} / J N N N N N N N N N N N ",
"+ + @ # % & & & 4 t l j w 2 & & & & & & & & & & # @ + @ # % & & & 4 t l j w 2 & & & & & & & & & & & ",
"6 6 6 6 6 6 6 6 9 y p p t 9 6 6 6 6 6 6 6 6 6 6 6 6 6 6 6 6 6 6 6 9 y p p t 9 6 6 6 6 6 6 6 6 6 6 6 ",
",.,.,.,.,.,.,.,. .R x v Q @.,.,.,.,.,.,.,.,.,.,.,.,.,.,.,.,.,.,.,. .R x v Q @.,.,.,.,.,.,.,.,.,.,.,.",
" X X X X X X X XG.2.F U 9.J. X X X X X X X X X X X X X X X X X X XG.2.F U 9.J. X X X X X X X X X X X",
"2X2X2X2X2X5X8X9X.Xd.U ) l.OX9X8X3X2X2X2X2X2X2X2X2X2X2X2X2X2X5X8X9X.Xd.U ) l.OX9X8X3X2X2X2X2X5X8X9X9X",
"oXoXoXoXoX%X<X8X.Xd.U ) l.OX8X>X$XoXoXoXoXoXoXoXoXoXoXoXoXoX%X<X8X.Xd.U ) l.OX8X>X$XoXoXoX@X*X2X9X9X",
"!.!.!.!.!.}.%X5X.Xd.U ) l.OX3X$X{.!.!.!.!.!.!.!.!.!.!.!.!.!.}.%X5X.Xd.U ) l.OX3X$X{.!.!.!./.oX:X9X9X",
"C.C.C.C.C.!.oX<X[.u.U ^ h..X:XXXQ.C.C.C.C.C.C.C.C.C.C.C.C.C.!.oX<X[.u.U ^ h..X:XXXQ.C.C.C.A.].#X5X5X",
"C.C.C.C.C.U.].oXT.0.L R y.W.XX`.U.C.C.C.C.C.C.C.C.C.C.C.C.C.U.].oXT.0.L R y.W.XX`.U.C.C.C.A.!.{.@X@X",
"C.C.C.C.C.S.U.!.M.;.A P 3.B.!.U.A.C.C.C.C.C.C.C.C.C.C.C.C.C.S.U.!.M.;.A P 3.B.!.U.A.C.C.C.C.F.R.~.~.",
"b.b.b.b.b.b.b.b.r.o.V A $.s.b.b.b.b.b.b.b.b.b.b.b.b.b.b.b.b.b.b.b.r.o.V A $.s.b.b.b.b.b.b.b.b.b.b.b.",
"6.6.6.6.6.6.6.6.$.! x m ( *.6.6.6.6.6.6.6.6.6.6.6.6.6.6.6.6.6.6.6.$.! x m ( *.6.6.6.6.6.6.6.6.6.6.6.",
"( ( ( ( ( ( ( ( I V j j C T ( ( ( ( ( ( ( ( ( ( ( ( ( ( ( ( ( ( ( I V j j C T ( ( ( ( ( ( ( ( ( ( ( ",
"s s s s s s s s s s s s s s s s s s s s s s s s s s s s s s s s s s s s s s s s s s s s s s s s s s ",
"s s s s s s s s s s s s s s s s s s s s s s s s s s s s s s s s s s s s s s s s s s s s s s s s s s "
};
