/* XPM */
static char *out[] = {
/* columns rows colors chars-per-pixel */
"50 50 243 2 ",
"   c None",
".  c black",
"X  c gray2",
"o  c #080503",
"O  c #090604",
"+  c #0E0905",
"@  c #0E0906",
"#  c #0C0C0C",
"$  c gray6",
"%  c #120B07",
"&  c #100A08",
"*  c #120A08",
"=  c #120A09",
"-  c #130B09",
";  c #130C08",
":  c #140C08",
">  c #170E09",
",  c #150C0A",
"<  c #160D0A",
"1  c #170E0A",
"2  c #180F09",
"3  c #180D0B",
"4  c #180E0A",
"5  c #190F0B",
"6  c #1A0F0C",
"7  c #1B100B",
"8  c #1C110C",
"9  c #1D110C",
"0  c #1E110D",
"q  c #1D120C",
"w  c #1D120D",
"e  c #1E120C",
"r  c #191919",
"t  c #1D1D1D",
"y  c #1E1E1E",
"u  c #20130D",
"i  c #24150F",
"p  c #25160F",
"a  c #231410",
"s  c #231411",
"d  c #281A13",
"f  c #2D1B12",
"g  c #2F1A17",
"h  c #301D14",
"j  c #321E15",
"k  c #311B18",
"l  c #361F19",
"z  c #342016",
"x  c #352016",
"c  c #392217",
"v  c #31231C",
"b  c #3A211B",
"n  c #3C231B",
"m  c #222222",
"M  c gray14",
"N  c gray16",
"B  c #2D2D2D",
"V  c #3C332F",
"C  c gray19",
"Z  c gray21",
"A  c #373737",
"S  c gray22",
"D  c #3A3A3A",
"F  c #3E3E3E",
"G  c #3F3F3F",
"H  c #41271A",
"J  c #41261D",
"K  c #40241E",
"L  c #43281C",
"P  c #43291C",
"I  c #452A1D",
"U  c #472B1D",
"Y  c #482B1F",
"T  c #492C1E",
"R  c #4C2E1F",
"E  c #4A2924",
"W  c #533123",
"Q  c #553324",
"!  c #573227",
"~  c #5E3926",
"^  c #583229",
"/  c #5D342B",
"(  c #5D352B",
")  c #54382A",
"_  c #543A2E",
"`  c #633A2B",
"'  c #633A2C",
"]  c #683C2E",
"[  c #6E3F32",
"{  c #6B402C",
"}  c #6C412D",
"|  c #6E412F",
" . c #6E422E",
".. c #6E4031",
"X. c #65483B",
"o. c #714232",
"O. c #734333",
"+. c #734431",
"@. c #744531",
"#. c #744630",
"$. c #704337",
"%. c #784833",
"&. c #7E4B36",
"*. c gray25",
"=. c #474442",
"-. c #484848",
";. c gray29",
":. c #505050",
">. c #555555",
",. c #5B5B5B",
"<. c #795041",
"1. c #7F5A48",
"2. c #7D6153",
"3. c #79675C",
"4. c #5F6465",
"5. c #606060",
"6. c gray38",
"7. c #626262",
"8. c #626364",
"9. c #646466",
"0. c #666768",
"q. c #69696A",
"w. c gray43",
"e. c #7C6A62",
"r. c #747474",
"t. c #767676",
"y. c #797D77",
"u. c #7B7B7B",
"i. c #815642",
"p. c #825E4C",
"a. c #9A6E59",
"s. c #927564",
"d. c #947664",
"f. c #A78879",
"g. c #A6897C",
"h. c #7F9694",
"j. c #709DA2",
"k. c #6CB7C3",
"l. c #75B8C5",
"z. c #74C3D1",
"x. c #7CCEDF",
"c. c #6ACEE6",
"v. c #72D1E8",
"b. c gray51",
"n. c gray53",
"m. c #898989",
"M. c #8B8B8B",
"N. c gray56",
"B. c #928C89",
"V. c #849795",
"C. c #89989B",
"Z. c #95979C",
"A. c #96999D",
"S. c #989A9E",
"D. c #BBA194",
"F. c #B1A49A",
"G. c #B7A59B",
"H. c #9A9CA0",
"J. c #9EA8AA",
"K. c #92B3B5",
"L. c #A1A3A6",
"P. c #A7A9AC",
"I. c #AEAFB1",
"U. c #A7B6BA",
"Y. c #B5B5B7",
"T. c #BCBCBC",
"R. c #BDBDBE",
"E. c #CCB8AF",
"W. c #9DBDC3",
"Q. c #BABFC8",
"!. c #97C7D9",
"~. c #9CD2DD",
"^. c #BCC1CA",
"/. c #BEC3CC",
"(. c #B2CCD2",
"). c #A5D0D7",
"_. c #86D7E8",
"`. c #8DD3EE",
"'. c #92D5EF",
"]. c #BAD6ED",
"[. c #AFD7F6",
"{. c #A0DFF0",
"}. c #B1D8F6",
"|. c #B0DEF4",
" X c #BFDCF8",
".X c #B2E1EB",
"XX c gray77",
"oX c gray78",
"OX c #C2C6CF",
"+X c #C8C8C8",
"@X c #CFD2CF",
"#X c #DDD3CF",
"$X c #C6CAD2",
"%X c #CCD0D7",
"&X c #CAD5DF",
"*X c #DBD3D2",
"=X c #D2D5DD",
"-X c gray86",
";X c #CFD6E6",
":X c #CFD7E7",
">X c #D1D8E8",
",X c #D3DBEA",
"<X c #CBDBFC",
"1X c #CCDBFC",
"2X c #CCDCFC",
"3X c #CDDCFC",
"4X c #CEDDFC",
"5X c #D0DEFC",
"6X c #D0DFFC",
"7X c #DDECEF",
"8X c #CEEEF7",
"9X c #CCE0FB",
"0X c #CDE7F9",
"qX c #DBE2F1",
"wX c #D4E0F8",
"eX c #D5E1FA",
"rX c #D3E1FC",
"tX c #D4E1FD",
"yX c #D5E2FD",
"uX c #D6E3FD",
"iX c #D7E3FD",
"pX c #D8E4FC",
"aX c #DAE6FD",
"sX c #DCE7FD",
"dX c #DDE7FD",
"fX c #DEE8FD",
"gX c #E1E4E9",
"hX c #E0E7F6",
"jX c #EBEDF2",
"kX c #E7EDFB",
"lX c #E0E9FD",
"zX c #E0EAFD",
"xX c #E5EDFD",
"cX c #EAF0FE",
"vX c #EBF1FE",
"bX c #ECF2FE",
"nX c #F5F7FA",
"mX c #F2F6FE",
"MX c #F6F9FE",
"NX c #F7FAFF",
"BX c #FAFCFF",
"VX c #FBFCFF",
"CX c #FDFEFF",
/* pixels */
"                                                                                                    ",
"                                                                                                    ",
"                                                                                                    ",
"                                                                                                    ",
"                                                                                                    ",
"                                                                                                    ",
"                                                                . . . . . . . . . . .               ",
"                                                              . . . . . . . . . . . . .             ",
"                                                              C Z S S S S S S C y # . .             ",
"                                                          . A 7.b.m.m.m.m.m.m.t.;.y . .             ",
"                                                        . . G n.+X-X-X-X-X-X-XT.t.C . .             ",
"                                                        N B 8.L.gXMXMXMXNXBXCX-Xm.S . .             ",
"                                                      D 6.u.H.Q.qXxXxXxXcXmXBX-Xm.S . .             ",
"                                                  . . -.M.oX=X,XwXtXtXtXsXcXNX-Xm.S . .             ",
"                                                  m M 9.P.jXbXfX5X<X<X<XtXxXMX-Xm.S . .             ",
"                                                F 5.r.S.^.hXlXiX4X<X<X<XtXxXMX-Xm.S . .             ",
"                                            . X :.N.XX%X>XeXrX5X2X<X<X<XtXxXMX-Xm.S . .             ",
"                                            r y 0.I.nXbXdX4X<X<X<X2X4X5XwXqXgX+Xb.Z . .             ",
"                                          *.,.w.A./.kXzXuX3X<X<X<X5XiXfX,XQ.L.n.7.C .               ",
"                                      . $ >.N.R.$X:XpXyX6X2X<X<X<XrXlXbX=XH.8.G A                   ",
"                                      $ t q.Y.VXvXsX2X<X<X<X2X3X4XeXhXjXoXu.B . .                   ",
"                                    *.>.q.Z.OXvXzXuX1X<X<X<X6XuXdX>X^.P.M.6.N .                     ",
"                                . r ,.N.Y.OX;XaXyX6X<X<X<X<XyXzXbX%XS.9.-.D                         ",
"                                X y w.R.VXvXaX<X<X<X<X<X1X2XpXkXnXXXr.M .                           ",
"                              F :.0.A.$XvXzXyX<X<X<X<X6XuXsX:X/.I.N.5.m .                           ",
"              . . . . . . . m 5.N.I./.:XsXuX6X<X<X<X<XyXzXvX$XA.0.:.F                               ",
"            . . . . . . . . M r.XXnXkXpX2X1X<X<X<X<X<XaXvXVXR.w.y X                                 ",
"            . . O 1 p v V =.9.S.%XbXzXyX<X<X<X<X6XyXaX;XOXY.N.,.r .                                 ",
"            . . ; h R X.e.B.P.^.>XdXuX6X<X<X<X1XuXzXvXOXZ.q.>.*.                                    ",
"            . . q T #.a.D.#XjXhXeX4X3X2X<X<X<X2XsXvXVXY.q.t $                                       ",
"              . w H ~ 1.g.E.*X&X].[.[.[.}. X9XpX:X$XR.N.>.$ .                                       ",
"                2 f c _ 2.f.G.U.!.`.`.`.'.|.0XkX/.A.w.,.*.                                          ",
"                  + @ d ) i.d.V.l.c.c.c.v.{.8XnXI.0.y r                                             ",
"                  7 e j W @.p.y.j.k.z.x._.~.(.XXN.:.X .                                             ",
"                7 x U Q ` o.<.3.y.h.K.)..XW.C.r.5.F                                                 ",
"              . e U } %.O.[ $.<.p.s.F.@X7XJ.4.M m                                                   ",
"            > 5 j Q %.&...( ^ ' | i.f.E.#XB.=.. .                                                   ",
"          0 z P W ` O...! K l n L ) 2.g.D.e.V . .                                                   ",
"      . . i T { @.o.[ ( K a - < 4 d _ 1.a.X.v . .                                                   ",
"      . . u U  .+.] / E g = . . . @ c ~ #.R p . .                                                   ",
"      . . : f I Y J b k s & . . . + f H T h 1 . .                                                   ",
"      . . o % 8 9 6 3 , *           2 w q ; O . .                                                   ",
"      . . . . . . . . .               . . . . . .                                                   ",
"        . . . . . . .                   . . . .                                                     ",
"                                                                                                    ",
"                                                                                                    ",
"                                                                                                    ",
"                                                                                                    ",
"                                                                                                    ",
"                                                                                                    "
};
